<?xml version="1.0" encoding="utf-8"?>
<!-- Generator: Adobe Illustrator 17.0.0, SVG Export Plug-In . SVG Version: 6.00 Build 0)  -->
<!DOCTYPE svg PUBLIC "-//W3C//DTD SVG 1.1//EN" "http://www.w3.org/Graphics/SVG/1.1/DTD/svg11.dtd">
<svg version="1.1" id="Layer_1" xmlns="http://www.w3.org/2000/svg" xmlns:xlink="http://www.w3.org/1999/xlink" x="0px" y="0px"
	 width="414px" height="150px" viewBox="0 0 414 150" enable-background="new 0 0 414 150" xml:space="preserve">
<g>
	<g>
		<defs>
			<rect id="SVGID_1_" x="0" width="414" height="150"/>
		</defs>
		<clipPath id="SVGID_2_">
			<use xlink:href="#SVGID_1_"  overflow="visible"/>
		</clipPath>
		<g id="day" clip-path="url(#SVGID_2_)">
			<rect x="0" fill="#E6ECF6" width="414" height="150"/>
			<path id="cloud" fill="#FFFFFF" d="M193.117,31.21c-2.773,0-5.54,0.1-8.258,0.299c-3.697-6.666-21.644-10.987-40.087-9.651
				c-2.626,0.19-5.182,0.492-7.613,0.899c-8.732-8.508-34.892-12.847-58.431-9.691C55.42,16.191,43.38,25.504,51.701,33.971
				c-20.917,0.285-37.234,6.645-36.445,14.205c0.763,7.319,17.321,13.127,37.584,13.182h140.28c23.033,0,41.705-6.749,41.705-15.074
				S216.153,31.21,193.12,31.21H193.117z"/>
			<path id="cloud-2" opacity="0.52" fill="#FFFFFF" enable-background="new    " d="M260.076,28.796
				c-2.43,0-4.854,0.087-7.236,0.261c-3.238-5.841-18.964-9.628-35.125-8.457c-2.303,0.167-4.544,0.431-6.676,0.788
				c-7.659-7.454-30.587-11.253-51.21-8.484c-20.41,2.74-30.953,10.895-23.673,18.311c-18.333,0.177-32.798,5.692-32.309,12.318
				c0.481,6.518,15.27,11.705,33.309,11.682h122.919c20.183,0.001,36.546-5.912,36.549-13.207
				c0.003-7.295-16.356-13.209-36.539-13.21c-0.003,0-0.007,0-0.01,0L260.076,28.796L260.076,28.796z"/>
			<path id="cloud-3" fill="#FFFFFF" d="M344.514,69.97c1.746,0,3.488,0.063,5.2,0.188c2.328-4.197,13.627-6.917,25.237-6.075
				c1.652,0.12,3.26,0.309,4.79,0.565c5.431-5.365,21.866-8.123,36.709-6.16c14.79,1.956,22.428,7.864,17.091,13.219
				c13.169,0.151,23.506,4.132,23.089,8.891c-0.407,4.648-10.939,8.342-23.806,8.35h-88.31c-14.5,0.032-26.327-4.19-26.416-9.431
				s11.593-9.516,26.093-9.548C344.298,69.969,344.406,69.969,344.514,69.97L344.514,69.97z"/>
			<path id="cloud-4" fill="#FFFFFF" d="M-19.239,92.236c2.245,0,4.484,0.081,6.685,0.241C-9.56,87.081,4.97,83.583,19.9,84.666
				c2.125,0.154,4.192,0.398,6.159,0.727c6.935-6.905,28.045-10.471,47.149-7.964c19.104,2.507,28.969,10.137,22.034,17.042l0,0
				c16.934,0.191,30.233,5.308,29.704,11.429c-0.517,5.981-14.07,10.735-30.626,10.742H-19.239
				c-18.646,0-33.761-5.463-33.761-12.203C-53,97.699-37.885,92.236-19.239,92.236z"/>
		</g>
	</g>
</g>
</svg>
