<?xml version="1.0" encoding="utf-8"?>
<!-- Generator: Adobe Illustrator 17.0.0, SVG Export Plug-In . SVG Version: 6.00 Build 0)  -->
<!DOCTYPE svg PUBLIC "-//W3C//DTD SVG 1.1//EN" "http://www.w3.org/Graphics/SVG/1.1/DTD/svg11.dtd">
<svg version="1.1" id="Layer_1" xmlns="http://www.w3.org/2000/svg" xmlns:xlink="http://www.w3.org/1999/xlink" x="0px" y="0px"
	 width="414px" height="150px" viewBox="0 0 414 150" enable-background="new 0 0 414 150" xml:space="preserve">
<g>
	<defs>
		<rect id="SVGID_1_" x="0" width="414" height="415"/>
	</defs>
	<clipPath id="SVGID_2_">
		<use xlink:href="#SVGID_1_"  overflow="visible"/>
	</clipPath>
	<g id="night" clip-path="url(#SVGID_2_)">
		<rect x="0" fill="#243046" width="414" height="150"/>
		<path id="cloud-2" opacity="0.04" fill="#FFFFFF" enable-background="new    " d="M235.766,120.795
			c1.914-0.001,3.824,0.19,5.7,0.569c2.55-12.721,14.93-20.965,27.651-18.414c1.811,0.363,3.573,0.939,5.249,1.714
			c5.909-16.277,23.896-24.682,40.173-18.773c16.277,5.909,24.682,23.896,18.773,40.173c14.428,0.455,25.756,12.52,25.302,26.948
			c-0.444,14.093-11.986,25.294-26.087,25.315h-96.761c-15.887,0.094-28.842-12.709-28.935-28.596
			c-0.094-15.887,12.709-28.842,28.596-28.935c0.113-0.001,0.226-0.001,0.34,0V120.795z"/>
		<g id="moon" transform="translate(277 20.965)">
			<path id="Path_1" fill="#FFEB98" d="M31.37,80.21c26.959,0.009,48.82-21.838,48.829-48.797
				C80.203,19.927,76.156,8.807,68.77,0.01c28.748,9.232,44.569,40.021,35.336,68.769s-40.021,44.569-68.769,35.336
				C18.548,98.724,5.391,85.565,0,68.776C8.779,76.171,19.891,80.222,31.37,80.21z"/>
			<path id="Path_2" fill="#EFCF6E" d="M85.841,9.142c18.656,23.705,14.562,58.044-9.142,76.7
				c-19.819,15.597-47.739,15.597-67.558,0c18.626,23.734,52.966,27.875,76.7,9.249s27.875-52.966,9.249-76.7
				C92.389,14.949,89.283,11.843,85.841,9.142z"/>
		</g>
		<path id="cloud-3" fill="#333E53" d="M321.401,122.672c2.271,0,4.535,0.226,6.761,0.676c3.026-15.098,17.718-24.884,32.816-21.858
			c2.15,0.431,4.242,1.114,6.233,2.035c7.014-19.319,28.362-29.295,47.681-22.281c19.319,7.014,29.295,28.362,22.281,47.681
			c17.125,0.549,30.562,14.877,30.013,32.001c-0.536,16.714-14.223,29.995-30.945,30.029h-114.84
			c-18.856,0.102-34.224-15.101-34.326-33.957s15.101-34.224,33.957-34.326C321.155,122.671,321.278,122.671,321.401,122.672z"/>
		<path id="cloud-4" opacity="0.06" fill="#FFFFFF" enable-background="new    " d="M72.216,58.203
			c-1.934,0-3.863,0.193-5.759,0.576C63.88,45.917,51.364,37.58,38.502,40.158c-1.832,0.367-3.614,0.949-5.31,1.734
			C27.217,25.434,9.031,16.936-7.427,22.911S-32.383,47.072-26.408,63.53c-14.588,0.474-26.03,12.684-25.556,27.272
			c0.462,14.23,12.113,25.536,26.35,25.57h97.829c16.063,0,29.085-13.022,29.085-29.084S88.278,58.203,72.216,58.203L72.216,58.203z
			"/>
		<g id="Group_1" transform="translate(-55 31.992)" opacity="0.92">
			<path id="Path_4" fill="#FFF6D2" d="M234.109,82.84l0.459,0.93l1.027,0.149l-0.743,0.724l0.176,1.022l-0.918-0.482l-0.918,0.482
				l0.176-1.022l-0.743-0.724l1.027-0.149L234.109,82.84z"/>
		</g>
		<g id="Group_2" transform="translate(16 -0.008)" opacity="0.51">
			<path id="Path_4-2" fill="#FFF6D2" d="M234.109,82.84l0.459,0.93l1.027,0.149l-0.743,0.724l0.176,1.022l-0.918-0.482
				l-0.918,0.482l0.176-1.022l-0.743-0.724l1.027-0.149L234.109,82.84z"/>
		</g>
		<g id="Group_4" transform="translate(-190 52.992)" opacity="0.26">
			<path id="Path_4-3" fill="#FFF6D2" d="M234.109,82.84l0.459,0.93l1.027,0.149l-0.743,0.724l0.176,1.022l-0.918-0.482
				l-0.918,0.482l0.176-1.022l-0.743-0.724l1.027-0.149L234.109,82.84z"/>
		</g>
		<g id="Group_6" transform="translate(-190 -67.008)" opacity="0.92">
			<path id="Path_4-4" fill="#FFF6D2" d="M234.109,82.84l0.459,0.93l1.027,0.149l-0.743,0.724l0.176,1.022l-0.918-0.482
				l-0.918,0.482l0.176-1.022l-0.743-0.724l1.027-0.149L234.109,82.84z"/>
		</g>
		<g id="Group_7" transform="translate(-3 -58.008)" opacity="0.92">
			<path id="Path_4-5" opacity="0.45" fill="#FFF6D2" enable-background="new    " d="M234.109,82.84l0.459,0.93l1.027,0.149
				l-0.743,0.724l0.176,1.022l-0.918-0.482l-0.918,0.482l0.176-1.022l-0.743-0.724l1.027-0.149L234.109,82.84z"/>
		</g>
		<g id="Group_9" transform="translate(-70 102.992)" opacity="0.48">
			<path id="Path_4-6" fill="#FFF6D2" d="M234.109,82.84l0.459,0.93l1.027,0.149l-0.743,0.724l0.176,1.022l-0.918-0.482
				l-0.918,0.482l0.176-1.022l-0.743-0.724l1.027-0.149L234.109,82.84z"/>
		</g>
		<g id="Group_10" transform="translate(30 162.992)" opacity="0.92">
			<path id="Path_4-7" fill="#FFF6D2" d="M234.109,82.84l0.459,0.93l1.027,0.149l-0.743,0.724l0.176,1.022l-0.918-0.482
				l-0.918,0.482l0.176-1.022l-0.743-0.724l1.027-0.149L234.109,82.84z"/>
		</g>
		<g id="Group_11" transform="translate(70 112.992)" opacity="0.46">
			<path id="Path_4-8" fill="#FFF6D2" d="M234.109,82.84l0.459,0.93l1.027,0.149l-0.743,0.724l0.176,1.022l-0.918-0.482
				l-0.918,0.482l0.176-1.022l-0.743-0.724l1.027-0.149L234.109,82.84z"/>
		</g>
		<g id="Group_13" transform="translate(150 232.992)" opacity="0.92">
			<path id="Path_4-9" fill="#FFF6D2" d="M234.109,82.84l0.459,0.93l1.027,0.149l-0.743,0.724l0.176,1.022l-0.918-0.482
				l-0.918,0.482l0.176-1.022l-0.743-0.724l1.027-0.149L234.109,82.84z"/>
		</g>
		<g id="Group_14" transform="translate(30 292.992)" opacity="0.92">
			<path id="Path_4-10" fill="#FFF6D2" d="M234.109,82.84l0.459,0.93l1.027,0.149l-0.743,0.724l0.176,1.022l-0.918-0.482
				l-0.918,0.482l0.176-1.022l-0.743-0.724l1.027-0.149L234.109,82.84z"/>
		</g>
		<g id="Group_15" transform="translate(-150 272.992)" opacity="0.92">
			<path id="Path_4-11" fill="#FFF6D2" d="M234.109,82.84l0.459,0.93l1.027,0.149l-0.743,0.724l0.176,1.022l-0.918-0.482
				l-0.918,0.482l0.176-1.022l-0.743-0.724l1.027-0.149L234.109,82.84z"/>
		</g>
	</g>
</g>
</svg>
